<svg width="156" height="29" viewBox="0 0 156 29" fill="none" xmlns="http://www.w3.org/2000/svg">
<path d="M0.275568 28V1.81818H17.6108V6.3821H5.81108V12.6207H16.4602V17.1847H5.81108V28H0.275568ZM21.2319 28V8.36364H26.6779V28H21.2319ZM23.9677 5.83239C23.158 5.83239 22.4634 5.56392 21.8839 5.02699C21.3129 4.48153 21.0273 3.82954 21.0273 3.07102C21.0273 2.32102 21.3129 1.67756 21.8839 1.14062C22.4634 0.59517 23.158 0.322442 23.9677 0.322442C24.7773 0.322442 25.4677 0.59517 26.0387 1.14062C26.6183 1.67756 26.908 2.32102 26.908 3.07102C26.908 3.82954 26.6183 4.48153 26.0387 5.02699C25.4677 5.56392 24.7773 5.83239 23.9677 5.83239ZM36.4865 16.6477V28H31.0405V8.36364H36.2308V11.8281H36.4609C36.8956 10.6861 37.6243 9.78267 38.647 9.1179C39.6697 8.4446 40.9098 8.10795 42.3672 8.10795C43.7308 8.10795 44.9197 8.40625 45.9339 9.00284C46.9482 9.59943 47.7365 10.4517 48.299 11.5597C48.8615 12.6591 49.1428 13.9716 49.1428 15.4972V28H43.6967V16.4688C43.7053 15.267 43.3984 14.3295 42.7763 13.6562C42.1541 12.9744 41.2976 12.6335 40.2067 12.6335C39.4737 12.6335 38.826 12.7912 38.2635 13.1065C37.7095 13.4219 37.2749 13.8821 36.9595 14.4872C36.6527 15.0838 36.495 15.804 36.4865 16.6477ZM60.6708 28.3196C59.1793 28.3196 57.8285 27.9361 56.6183 27.169C55.4165 26.3935 54.462 25.2557 53.7546 23.7557C53.0558 22.2472 52.7063 20.3977 52.7063 18.2074C52.7063 15.9574 53.0685 14.0866 53.793 12.5952C54.5174 11.0952 55.4805 9.97443 56.6822 9.23295C57.8924 8.48295 59.2177 8.10795 60.658 8.10795C61.7575 8.10795 62.6737 8.29545 63.4066 8.67045C64.1481 9.03693 64.7447 9.49716 65.1964 10.0511C65.6566 10.5966 66.006 11.1335 66.2447 11.6619H66.4109V1.81818H71.8441V28H66.4748V24.8551H66.2447C65.989 25.4006 65.6268 25.9418 65.158 26.4787C64.6978 27.0071 64.0969 27.446 63.3555 27.7955C62.6225 28.1449 61.7276 28.3196 60.6708 28.3196ZM62.3967 23.9858C63.2745 23.9858 64.016 23.7472 64.6211 23.2699C65.2347 22.7841 65.7035 22.1065 66.0273 21.2372C66.3597 20.3679 66.5259 19.3494 66.5259 18.1818C66.5259 17.0142 66.364 16 66.0401 15.1392C65.7163 14.2784 65.2475 13.6136 64.6339 13.1449C64.0202 12.6761 63.2745 12.4418 62.3967 12.4418C61.5018 12.4418 60.7475 12.6847 60.1339 13.1705C59.5202 13.6562 59.0558 14.3295 58.7404 15.1903C58.4251 16.0511 58.2674 17.0483 58.2674 18.1818C58.2674 19.3239 58.4251 20.3338 58.7404 21.2116C59.0643 22.081 59.5288 22.7628 60.1339 23.2571C60.7475 23.7429 61.5018 23.9858 62.3967 23.9858Z" fill="black"/>
<path d="M98.3232 1.81818V28H93.5419L82.1513 11.5213H81.9595V28H76.424V1.81818H81.282L92.5831 18.2841H92.8132V1.81818H98.3232ZM111.743 28.3835C109.723 28.3835 107.985 27.9744 106.527 27.1562C105.078 26.3295 103.962 25.1619 103.178 23.6534C102.394 22.1364 102.002 20.3423 102.002 18.2713C102.002 16.2514 102.394 14.4787 103.178 12.9531C103.962 11.4276 105.066 10.2386 106.489 9.38636C107.921 8.53409 109.6 8.10795 111.526 8.10795C112.821 8.10795 114.027 8.31676 115.144 8.73438C116.269 9.14347 117.249 9.76136 118.084 10.5881C118.928 11.4148 119.584 12.4545 120.053 13.7074C120.522 14.9517 120.756 16.4091 120.756 18.0795V19.5753H104.175V16.2003H115.63C115.63 15.4162 115.459 14.7216 115.118 14.1165C114.777 13.5114 114.304 13.0384 113.699 12.6974C113.103 12.348 112.408 12.1733 111.615 12.1733C110.789 12.1733 110.056 12.3651 109.417 12.7486C108.786 13.1236 108.292 13.6307 107.934 14.2699C107.576 14.9006 107.392 15.6037 107.384 16.3793V19.5881C107.384 20.5597 107.563 21.3991 107.921 22.1065C108.287 22.8139 108.803 23.3594 109.468 23.7429C110.132 24.1264 110.921 24.3182 111.833 24.3182C112.438 24.3182 112.992 24.233 113.495 24.0625C113.998 23.892 114.428 23.6364 114.786 23.2955C115.144 22.9545 115.417 22.5369 115.604 22.0426L120.641 22.375C120.385 23.5852 119.861 24.642 119.069 25.5455C118.284 26.4403 117.27 27.1392 116.026 27.642C114.79 28.1364 113.363 28.3835 111.743 28.3835ZM128.51 8.36364L132.115 15.2287L135.809 8.36364H141.396L135.707 18.1818L141.549 28H135.988L132.115 21.2116L128.305 28H122.68L128.51 18.1818L122.885 8.36364H128.51ZM155.075 8.36364V12.4545H143.25V8.36364H155.075ZM145.934 3.65909H151.38V21.9659C151.38 22.4687 151.457 22.8608 151.61 23.142C151.764 23.4148 151.977 23.6065 152.25 23.7173C152.531 23.8281 152.855 23.8835 153.221 23.8835C153.477 23.8835 153.733 23.8622 153.988 23.8196C154.244 23.7685 154.44 23.7301 154.576 23.7045L155.433 27.7571C155.16 27.8423 154.777 27.9403 154.282 28.0511C153.788 28.1705 153.187 28.2429 152.48 28.2685C151.167 28.3196 150.017 28.1449 149.028 27.7443C148.048 27.3437 147.285 26.7216 146.74 25.8778C146.194 25.0341 145.926 23.9687 145.934 22.6818V3.65909Z" fill="#FDC886"/>
</svg>
